<?xml version="1.0" encoding="utf-8"?>
<!-- Generator: Adobe Illustrator 18.1.0, SVG Export Plug-In . SVG Version: 6.00 Build 0)  -->
<!DOCTYPE svg PUBLIC "-//W3C//DTD SVG 1.1//EN" "http://www.w3.org/Graphics/SVG/1.1/DTD/svg11.dtd">
<svg version="1.1" id="Layer_1" xmlns="http://www.w3.org/2000/svg" xmlns:xlink="http://www.w3.org/1999/xlink" x="0px" y="0px"
	 viewBox="0 0 500 46.5" enable-background="new 0 0 500 46.5" xml:space="preserve">
<g>
	<path fill="#231F20" d="M446.2,16.7l-0.1-0.9c-0.1-1.4-0.2-2.9-0.6-4.2c-0.3-0.9-1.2-1.7-2-2.1c-0.1,0-0.2-0.1-0.3-0.1
		c-0.7,0-1.6,0.9-2,1.4c-0.9,1.3-1.8,2.6-2.6,3.8c-0.5,0.8-1,1.6-1.6,2.3c-0.5,0.7-1,1.5-1.6,2.1c-0.2,0.2-0.3,0.4-0.5,0.6
		c0,0-0.1,0-0.1,0c-0.1,0-0.1,0-0.2-0.1c-0.7-0.9-1.4-1.8-2-2.7c-1.3-1.7-2.6-3.5-3.9-5.2c-0.7-0.8-1.5-1.5-2.3-2
		c-0.3-0.1-0.5-0.2-0.8-0.2c-0.7,0-1.2,0.5-1.6,1c-0.1,0.2-0.3,0.3-0.4,0.4c-1.5,1.5-1.7,3.3-1.9,5l0,0.3c-0.1,0.8-0.2,1.7-0.4,2.5
		c-0.3,1.8-0.6,3.6-0.4,5.5c0.3,3.5,1.2,7,2,9.6c0.5,1.6,1.5,3.3,2.9,5c0.3,0.3,0.8,0.5,1.6,0.5c0.5,0,1.1-0.1,1.8-0.2
		c0.8-0.1,1.1-1.7,1-2.3c-0.1-0.7-0.3-1.5-0.6-2.2c-0.2-0.6-0.4-1.3-0.5-1.9l-0.3-1.4c-0.5-2.6-1-5.3-1.2-7.9
		c-0.2-1.8-0.1-3.8-0.1-5.8c0-0.7,0-1.4,0-2.1c0.1,0,0.1,0.1,0.2,0.1c0.4,0.3,0.7,0.5,0.9,0.7c1.4,1.8,2.7,3.7,3.7,5.2l0,0.1
		c0.6,0.9,1.2,1.8,2.8,1.8c0.1,0,0.1,0,0.2,0c3.3,0,6.2-1.9,7.5-4.7c0.2-0.4,0.4-0.8,0.6-1.2c0.3,2,0.5,4,0.8,6
		c0.6,4.5,1.3,9.2,1.9,13.8c0.1,0.5,0.3,0.9,0.5,1.3c0.1,0.2,0.2,0.3,0.3,0.5c0.1,0.2,0.3,0.3,0.5,0.3c0,0,0.1,0,0.1,0l0.4-0.1
		l0.5-0.1c0.2,0,0.4-0.3,0.4-0.5c0-0.3,0-0.7,0.1-1c0.1-0.8,0.1-1.6-0.1-2.4C446.9,29.4,446.5,23,446.2,16.7z"/>
	<path fill="#231F20" d="M67.5,5.1c0-0.2-0.2-0.5-0.4-0.5l-0.9-0.1c0,0,0,0-0.1,0c-0.2,0-0.4,0.1-0.5,0.3c-1.6,4-2.4,8.3-3.3,12.4
		c-0.4,2-0.8,4.1-1.3,6.1c-1.1-1.3-2-2.6-2.9-3.8L57.8,19c-0.8-1.1-1.7-1.7-2.7-1.7c-0.6,0-1.6,0.3-2.5,1.5
		c-0.9,1.2-1.7,2.5-2.5,3.8c-0.4,0.6-0.8,1.3-1.2,1.9c-0.3,0.5-0.7,1-1.1,1.7c0,0-0.1,0.1-0.1,0.1c-0.1-0.3-0.1-0.5-0.2-0.7
		c-0.4-1.5-0.8-2.9-1.2-4.4c-1.1-3.8-2.2-7.7-3.2-11.5c-0.5-1.7-1.6-2.8-3.3-3.3c-0.1,0-0.2,0-0.4,0c-0.4,0-0.9,0.2-1.5,0.5
		c-0.5,0.3-0.5,1.1-0.4,1.5c0.5,1.9,1,3.8,1.6,5.7c0.7,2.4,1.4,4.9,2,7.4c0.3,1.3,0.7,2.7,1,4c0.5,1.9,0.9,4,1.5,5.9
		c0.3,0.9,1.4,2.3,2.4,2.3c1.1,0,2.3-0.9,3-1.7c0.7-0.8,1.1-1.8,1.6-2.7c0.2-0.4,0.4-0.9,0.7-1.3c0.7-1.3,1.4-2.5,2.2-3.9l0.7-1.2
		c0,0,0.1,0.1,0.1,0.1c0.3,0.3,0.5,0.5,0.7,0.8c0.4,0.7,0.8,1.4,1.2,2c0.8,1.3,1.6,2.7,2.5,3.9c0.7,0.9,2,1.6,3,1.6
		c0.1,0,0.2,0,0.3,0c0.8-0.1,1.6-0.9,2.3-2.5c0.4-0.8,0.6-1.7,0.6-3c0.2-6.3,1.1-12,2.6-17.5c0.2-0.8,0.2-1.6,0.1-2.4
		C67.5,5.7,67.5,5.4,67.5,5.1z"/>
	<path fill="#231F20" d="M31.2,3.3c-0.2,0-0.4,0-0.5,0l-0.3,0c-3.6,0.1-7.2,0.3-10.6,0.5l-0.9,0.1c-5.6,0.3-10.2,0.7-14.5,1
		C3.5,4.9,2.8,5.1,2.1,5.3C1.8,5.4,1.5,5.5,1.1,5.6C1,5.6,0.9,5.7,0.8,5.9L0.5,6.5C0.5,6.8,0.5,7,0.7,7.1c0.2,0.2,0.5,0.4,0.7,0.6
		c0.6,0.6,1.3,1.1,2,1.1c0.2,0,0.4,0,0.6,0c1.4,0,2.7-0.1,4.1-0.3c0.8-0.1,1.5-0.2,2.3-0.2c1.3-0.1,2.6-0.1,3.9-0.2
		c0.4,0,0.8,0,1.2,0c0.1,1.1,0.2,2.1,0.4,3.2c0.3,2.6,0.6,5,0.9,7.4c0.5,3.3,1.2,6.7,1.8,9.9l0.2,0.9c0.4,2.1,0.9,4.2,1.4,6.3
		c0.2,1,0.9,1.5,1.9,1.5c0.4,0,0.8-0.1,1.1-0.1c1.6-0.3,2.3-1.1,2.1-2.4c-0.1-0.9-0.3-1.9-0.4-2.8c-0.3-2.2-0.7-4.4-1-6.6
		c-0.7-5-1.4-10.4-2-15.8c0-0.4,0-0.9,0.3-1.2C22.6,8.1,23,8,23.5,8c0.8,0,1.6,0,2.4-0.1c0.8,0,1.6-0.1,2.4-0.1c0.4,0,0.9,0,1.3,0
		c0.1,0,0.2,0,0.4,0c1.3,0,3-0.4,3.8-1.2c0.3-0.3,0.4-0.7,0.4-1.1C33.9,3.3,31.9,3.3,31.2,3.3z"/>
	<path fill="#231F20" d="M268,28c-0.4-2.5-0.8-5.2-1.1-7.8c-0.3-2.7-0.4-5.4-0.5-8.1c0-0.7,0-1.4-0.1-2.2c-0.1-1.6-1.6-3.1-3.2-3.1
		h0c-0.4,0-0.8,0.1-1.1,0.3c-1.4,0.9-2.6,1.9-3.6,3c-1.4,1.5-2.6,3.1-3.9,4.7c-0.4,0.6-0.9,1.1-1.3,1.7c0,0-0.1,0-0.1,0
		c-0.3-0.2-0.5-0.3-0.7-0.5c-0.8-0.8-1.6-1.6-2.4-2.4c-1.4-1.4-2.8-2.9-4.3-4.3C245.5,9.1,245,9,244.4,9c-0.5,0-1,0-1,0.5
		c-0.1,0.2-0.1,0.5-0.2,0.7c-0.3,1-0.5,2.1-0.4,3.1c0.9,5.7,1.9,11.8,3.2,18.9c0.3,1.5,1.8,2.6,3.5,2.6c0.9,0,1.7-0.3,2.3-0.9
		c0.6-0.6,1-1.9,0.7-2.7c-1.9-4.6-2.8-9.4-3.8-14.7c0,0,0-0.1,0-0.1c0.1,0.1,0.3,0.2,0.4,0.3c0.8,0.6,1.5,1.2,2.2,1.8
		c1.2,1.2,2.7,1.8,4.2,1.8c1.6,0,3-0.7,4.3-1.9c1-1,2-2,3.1-3.2l1-1l0.2,1.8c0.2,1.9,0.4,3.6,0.5,5.3c0.1,1.2,0.2,2.3,0.3,3.5
		c0.3,2.9,0.5,5.8,0.9,8.7c0.1,0.6,0.3,1.1,0.5,1.6c0.1,0.2,0.2,0.4,0.3,0.7c0.1,0.2,0.3,0.3,0.5,0.3c0,0,0,0,0,0l0.7-0.1
		c0.2,0,0.4-0.2,0.4-0.4c0.1-0.2,0.1-0.4,0.2-0.6c0.2-0.5,0.4-1.1,0.3-1.6C268.5,31.7,268.2,29.8,268,28z"/>
	<path fill="#231F20" d="M212.7,18.6c-0.2,0-0.4-0.1-0.7-0.1c-0.6-0.1-1.1-0.2-1.7-0.2c-1.1,0-2,0.3-2.7,1c-0.2,0-0.4-0.1-0.6-0.1
		c-0.6-0.1-1.3-0.2-1.9-0.2l-0.2,0c-0.5,0-0.7,0.5-0.9,1c-0.1,0.1-0.1,0.3-0.2,0.4c-0.1,0.1-0.1,0.3,0,0.4c0.1,0.1,0.2,0.3,0.3,0.3
		c0.1,0,0.2,0.1,0.4,0.1c0.3,0.1,0.5,0.2,0.8,0.2c0.1,0,0.2,0,0.4-0.1c0.6-0.2,1.2-0.5,1.7-0.8c0.1-0.1,0.3-0.2,0.4-0.2c0,0,0,0,0,0
		c0,0,0,0,0,0c0.2,0,0.4,0.1,0.6,0.1c0.6,0.2,1.1,0.3,1.7,0.4c0.7,0.1,1.4,0.6,1.7,1.2c0.4,0.6,0.4,1.3,0.2,1.9
		c-0.3,1-0.6,2.1-1.1,3.2c-0.9,2.1-2.9,3.5-5,3.5c-0.2,0-0.4,0-0.6,0c-0.7-0.1-1.5-0.5-2.3-1c-0.3-0.2-0.7-0.4-1.1-0.6
		c-2.2-1.1-3.5-3-3.8-6c-0.1-1-0.2-2.1-0.3-3.1c-0.1-1.6-0.3-3.2-0.6-4.7c-0.5-2.9,0.2-5.3,2.3-7c1.9-1.6,3.6-2.4,5.3-2.4
		c1,0,2,0.3,2.9,0.8c1.4,0.7,2,1.5,2.1,2.8c0.1,1,0.3,1.9,0.5,2.8c0.1,0.4,0.2,0.8,0.2,1.2c0,0.2,0.2,0.3,0.3,0.4l0.3,0.1l0.2,0.1
		c0.1,0,0.1,0,0.2,0c0.2,0,0.4-0.1,0.5-0.3c0.1-0.2,0.1-0.3,0.2-0.5c0.2-0.4,0.4-0.9,0.4-1.4c-0.1-1.2-0.3-2.5-0.6-3.8
		c-0.5-2.3-3.4-4.5-6-4.5c-0.2,0-0.4,0-0.6,0c-0.3,0-0.6,0.1-0.9,0.2c-0.6,0.1-1.3,0.3-1.9,0.3c-0.3,0-0.5,0-0.7-0.1
		c-0.5-0.1-0.9-0.2-1.4-0.2c-1.2,0-2.3,0.5-3.3,0.9c-3.6,1.8-5,5.1-6.4,8.2c-0.3,0.7-0.6,1.4-0.9,2.1c-1.6,3.3-0.5,6.9,0.8,10
		c2.3,5.6,6.8,8.8,12.3,8.8c1.6,0,3.3-0.3,5-0.8c0.5-0.2,1.1-0.4,1.5-0.8c3.4-3.3,4.9-7.1,4.5-11.4C214.5,20,213.6,18.7,212.7,18.6z
		"/>
	<path fill="#231F20" d="M404.6,2.5c-0.1-0.1-0.2-0.2-0.4-0.2c0,0,0,0,0,0c-0.1,0-0.3,0.1-0.4,0.2c-1.5,1.6-2.7,3.5-3.9,5.4
		c-1.5,2.4-3,4.8-5.2,6.7l-0.4-0.7c-0.5-0.8-0.9-1.5-1.3-2.2c-0.4-0.7-0.8-1.4-1.2-2.1c-1-1.7-2-3.6-3.1-5.3
		c-0.5-0.7-1.4-1.4-2.4-1.7c-0.2,0-0.4-0.1-0.6-0.1c-0.7,0-1.5,0.2-1.9,0.8c-0.3,0.5-0.3,1.3,0.1,2.5c0.3,0.8,0.6,1.6,0.9,2.3
		c0.3,0.7,0.6,1.4,0.9,2.1c0.5,1.2,0.9,2.5,1.3,3.8c0.7,2,1.4,4.1,2.2,6.2c0.6,1.5,0.3,2.5-1,3.6c-0.4,0.3-0.8,0.7-1.1,1
		c-1.1,1-2.3,2-3.4,3c-0.4,0.4-0.7,0.9-1,1.3c-0.1,0.2-0.3,0.4-0.4,0.6c-0.2,0.2-0.1,0.5,0.1,0.7l0.6,0.5c0.1,0.1,0.2,0.1,0.3,0.1
		c0.1,0,0.2,0,0.2-0.1c1.9-1,3.4-2.5,4.8-4c0.8-0.9,1.7-1.8,2.7-2.6c0.3,0.5,0.6,1,0.9,1.5c0.9,1.5,1.8,3,2.7,4.4
		c1.3,2,2.5,3.5,3.7,4.8c0.6,0.6,1.4,1,2.2,1c0.9,0,1.6-0.4,2.1-1.2c0.5-0.7,0.1-1.9-0.3-3c-0.1-0.2-0.1-0.4-0.2-0.6
		c-0.1-0.4-0.4-0.8-0.7-1.2c-0.2-0.3-0.4-0.5-0.5-0.8c-0.5-1.2-1-2.3-1.4-3.5c-0.9-2.1-1.8-4.3-2.8-6.5c-0.6-1.2-0.5-2.1,0.3-3.1
		c0.7-0.9,1.3-1.7,2-2.6c1.6-2.1,3.3-4.3,4.9-6.5c0.1-0.1,0.1-0.2,0.2-0.3C405,5.8,406,4.5,404.6,2.5z"/>
	<path fill="#231F20" d="M353.9,19.8c-0.2-0.1-0.4-0.1-0.7-0.1c-0.5,0-0.9,0.1-1.4,0.2l-0.1,0c-0.3,0.1-0.5,0.4-0.5,0.7
		c-0.1,0.5-0.1,0.9,0.1,1.1c0.3,0.3,0.7,0.5,1,0.6c0.2,0.1,0.3,0.2,0.5,0.3c0.2,0.2,0.5,0.3,0.8,0.4c0.5,0.3,1.1,0.6,1.3,0.9
		c2.8,4.8,1.6,9.6,0.4,14.7c-0.1,0.4-0.2,0.8-0.3,1.2c-0.1,0.4-0.3,0.7-0.4,0.7c-0.2,0.1-0.6,0.1-0.9,0.1c-0.1,0-0.2,0-0.2,0
		c-0.2-0.3-0.5-0.7-0.7-1c-1-1.4-2-2.9-2.5-4.5c-1-3.3-1.8-6.9-2.3-10.6c-0.2-1.8,0.1-3.7,0.8-5.1c0.5-0.9,1.4-1.7,2.3-2.5
		c0.5-0.4,1.1-0.9,1.5-1.4c2.2-2.4,3.1-5.4,2.6-9c-0.2-1.7-1.7-3-3.3-3c-0.1,0-0.2,0-0.3,0c-1.1,0.1-2.8,1.2-3.2,2.4
		c-1,3.1-1.8,6.3-2.2,9.3c-0.4,2.8-0.6,3.1-2.1,3.1c-0.3,0-0.8,0-1.4-0.1c-0.1-0.4-0.2-0.8-0.3-1.2c-0.2-1.4-0.6-3.2-2.8-3.4
		c0,0-0.1,0-0.1,0c-1.3,0-3.5,1.1-4.1,2.4c-1.1,2.5,0.8,3.8,2.4,4.8c0.1,0.1,0.3,0.2,0.4,0.3c-0.8,0.3-1.5,0.5-2.1,0.5
		c-1,0-1.8-0.4-2.6-1.1c-1.2-1.2-2.4-3.2-1.1-5.6c0.1-0.2,0.6-0.4,0.9-0.6c0.2-0.1,0.4-0.2,0.5-0.3c0.3-0.1,0.6-0.3,0.9-0.4
		c0.1-0.1,0.3-0.1,0.4-0.2c0.2-0.1,0.3-0.2,0.3-0.4c0-0.2,0-0.3-0.1-0.4c-0.1-0.1-0.2-0.3-0.4-0.4c-0.4-0.5-0.7-0.9-1.1-0.9
		c0,0-0.1,0-0.1,0c-1.2,0.3-2.4,0.5-3.1,1.3c-1.6,1.7-2,4.4-1.1,6.9c0.9,2.6,2.8,4.4,5.2,4.8c0.4,0.1,0.9,0.1,1.4,0.1
		c0.7,0,2.6-0.1,3.6-1.1c1.7-1.6,3.6-2.1,5.9-2.4c0,0.4,0,0.8,0,1.2c0,1.2,0,2.4,0,3.5c0.1,5.9,2,11.4,5.6,17c0.7,1,1.8,1.7,2.9,1.7
		c0.7,0,1.3-0.3,1.6-0.8c0.8-1.2,1.7-2.6,2-4c0.1-0.5,0.2-1.1,0.3-1.6c0.7-3.5,1.4-7.1,0.6-10.7C358.2,24.6,357.4,21.2,353.9,19.8z
		 M348.7,16c0.2-3.8,1-6.7,2.6-9.3c0.1-0.1,0.4-0.2,0.6-0.3c0.8,0.8,1,1.1,1.1,1.2c-0.7,2.5-1.5,4.7-2.4,6.5
		c-0.3,0.6-0.9,1.1-1.6,1.6C348.8,15.9,348.8,15.9,348.7,16z M338.3,17c0.1-0.2,0.9-0.6,1.2-0.6c0.8,0.4,1,1.2,0.7,2.1
		c-0.3-0.1-0.5-0.2-0.8-0.3C338.4,18,338.1,17.8,338.3,17z"/>
	<path fill="#231F20" d="M476.1,33.5c-1-2.6-2-5.1-1.9-8.1c0.1-1.5-0.4-2.9-0.9-4.3c-0.3-0.9-0.7-1.9-0.8-2.8c-0.1-0.9,0-1.9,0.1-3
		c0.1-0.5,0.1-1.1,0.2-1.6l0-0.4c0.1-1.3,0.1-2-0.4-2.2c-0.2-0.1-0.5-0.2-0.7-0.2c-0.9-0.3-1.9-0.7-2.8-0.7c-0.4,0-0.8,0.1-1,0.2
		c-1.3,0.7-2.2,2.3-2.9,3.6c-0.1,0.2-0.2,0.4-0.3,0.6c-1.2,2.2-2.2,4.2-3,6.1c-1.7,4.2-3.5,8.7-5.6,14.5c-0.2,0.7-0.1,1.7,0.4,2.3
		c0.6,0.7,1.3,1.1,2.1,1.1c1,0,1.9-0.6,2.6-1.8c1.2-2.1,2.4-4.3,3.4-6.4c0.3-0.6,0.6-1.1,0.9-1.7c0.8-1.6,1.2-1.9,2-1.9
		c0.4,0,0.9,0.1,1.6,0.3l0.3,0.1c0.6,0.2,1.9,0.5,2.1,0.8c0.6,1.6,1.1,3.2,1.5,4.9c0.3,0.9,0.5,1.9,0.8,2.8c0.2,0.8,0.6,1.5,0.9,2.2
		c0.2,0.3,0.3,0.6,0.4,1c0.1,0.2,0.3,0.3,0.5,0.3c0,0,0,0,0,0l0.4,0l0.5,0c0.2,0,0.4-0.2,0.4-0.4c0-0.2,0.1-0.4,0.2-0.6
		c0.2-0.5,0.4-1.1,0.2-1.6C476.9,35.5,476.4,34.5,476.1,33.5z M470.9,24.4c-0.1,0.1-0.2,0.1-0.4,0.1c-0.1,0-0.2,0-0.4,0
		c-0.6-0.1-1.3-0.2-2.1-0.3c-0.2,0-0.4,0-0.7-0.1l1-2.2l1.5-3.3l0.1,0c0.1,0.4,0.2,0.8,0.3,1.3c0.3,1.2,0.6,2.5,0.8,3.8
		C471,24,471,24.2,470.9,24.4z"/>
	<path fill="#231F20" d="M497.3,29.3c-1-1.2-2.1-2.4-3.1-3.6c-1.6-1.8-3.2-3.7-4.7-5.6c-2-2.6-2.1-4.9-0.2-6.9
		c0.5-0.5,1-0.7,1.5-0.7c0.4,0,0.8,0.1,1.2,0.4c2.1,1.3,3.3,3.8,2.8,6.3c-0.1,0.5,0,1,0.2,1.5c0,0.2,0.1,0.4,0.1,0.5
		c0,0.2,0.2,0.3,0.4,0.4c0,0,0.1,0,0.1,0c0.1,0,0.3-0.1,0.4-0.2c0.1-0.2,0.3-0.3,0.4-0.5c0.4-0.4,0.8-0.8,0.9-1.3
		c1-3.2-1.4-7.8-4.8-9.3c-0.4-0.2-0.7-0.4-1.1-0.6c-0.7-0.5-1.4-0.9-2.2-0.9c0,0,0,0,0,0c-2.5,0-4.6,1.4-5.7,3.8
		c-1.3,2.9-1.1,5.5,0.4,7.5c0.5,0.7,1.2,1.2,1.9,1.7c0.6,0.5,1.1,0.9,1.6,1.4c0.7,0.9,1.4,1.8,2.1,2.7c0.8,1,1.5,2.1,2.4,3
		c1.8,2,2.3,4.3,1.5,7.2c-0.1,0.4-0.5,1-0.8,1.1c-0.5,0.2-1,0.4-1.5,0.4c-1.2,0-2.4-0.7-3.5-1.4l-0.3-0.2c-0.2-0.2-0.2-1.5-0.2-2.1
		c0-0.3,0-0.5,0-0.7c0-0.1,0.1-0.3,0.3-0.5c0.1-0.2,0.3-0.4,0.4-0.6c0.3-0.7,0.5-1.4,0.7-2.1c0.1-0.3,0.2-0.7,0.4-1.1
		c0.1-0.2,0-0.3-0.1-0.5c-0.1-0.1-0.2-0.2-0.4-0.2c0,0,0,0,0,0c-1.4,0.1-3.1,0.4-3.4,2.3c-0.2,1.3-0.4,2.7-0.6,4
		c-0.1,0.9-0.2,1.7-0.4,2.6c-0.3,2.1,1.4,2.7,2,2.9c1.3,0.5,2.6,1,3.9,1.5c0.8,0.3,1.7,0.5,2.6,0.5c3.4,0,6.5-2.3,7.1-5.5
		C499.8,34,499.1,31.5,497.3,29.3z"/>
	<path fill="#231F20" d="M91,7.5C91,7.5,91,7.5,91,7.5c-0.2,0-0.4,0-0.6,0l-0.2,0c-2.7,0.1-5.4,0.2-8.1,0.2l-0.9,0
		c-0.2,0-0.4,0-0.6,0c-0.2,0-0.5,0-0.7,0c-0.9,0-2,0.2-2.5,1.4c-0.2,0.4-0.4,0.8-0.6,1.2c-0.9,2-1.9,4.2-2.3,6.4
		c-0.4,2.4-0.1,4.9,0.1,7.4l0.1,0.5l0.1,0.7c0.3,2.8,0.6,5.7,2.5,8.2c0.9,1.2,2,2.3,3.5,2.3c0.8,0,1.6-0.3,2.8-0.9
		c0.2-0.1,0.3-0.2,0.5-0.3c0.7-0.4,1.4-0.8,2.1-1c0.6-0.2,1.3-0.3,2-0.4c0.7-0.1,1.5-0.2,2.2-0.4c0.5-0.2,0.9-0.6,1.3-1
		c0.1-0.2,0.3-0.3,0.4-0.4c0.1-0.1,0.2-0.3,0.1-0.5s-0.2-0.3-0.4-0.4c-1.6-0.3-3-0.4-4.4-0.4c-0.3,0-0.6,0-0.9,0c-0.2,0-0.4,0-0.6,0
		c-1.8,0-3-0.1-3.4-1.3c-0.5-1.7-0.6-3.5-0.8-5.5c0-0.7-0.1-1.3-0.2-2H89c0.2,0,0.4-0.1,0.5-0.3c0.3-0.7,0.4-1.3,0.1-1.7
		c-0.4-0.7-1.3-0.7-2.1-0.8c-0.7-0.1-1.5-0.1-2.2-0.1c-1,0-1.9-0.1-2.9-0.2c-0.4,0-0.8-0.3-0.9-0.5c-0.9-1.9-0.9-3.8,0-5.3
		c0.9-1.5,2.6-2.3,4.6-2.3c0.2,0,0.3,0,0.5,0c0.6,0,1.3,0.1,2.2,0.1c0.6,0,1.2,0,1.8,0c0.6,0,1.2,0,1.9,0c0.3,0,0.5-0.2,0.5-0.5
		c0-0.7-0.2-1.3-0.5-1.6C92,7.6,91.5,7.5,91,7.5z"/>
	<path fill="#231F20" d="M309,16.6c-0.6-0.9-1.3-1.8-1.8-2.7c-0.2-0.3-0.6-0.5-0.9-0.7c-0.2-0.1-0.3-0.2-0.4-0.3
		c-1-0.9-1.8-1.7-2.6-2.5c-0.9-0.9-0.6-1.8-0.1-3.1c0.5-1.3,1.6-1.3,2.8-1.4c0.3,0,0.7,0,1-0.1c0.3,0,1.3,1,1.7,1.9
		c0.2,0.6,0.2,1.4,0.2,2.2c0,0.4,0,0.9,0,1.3c0,0.3,0.2,0.6,0.3,0.9c0.1,0.1,0.1,0.2,0.1,0.3c0.1,0.1,0.2,0.2,0.3,0.3
		c0.1,0,0.1,0,0.2,0c0.1,0,0.2,0,0.2-0.1c0.1,0,0.2-0.1,0.3-0.1c0.3-0.1,0.7-0.3,0.9-0.6c0.3-0.5,0.3-1.1,0.4-1.7
		c0.1-3.3-1.6-5.7-5.5-7.7c-0.7-0.3-1.4-0.5-2.2-0.5c-2.7,0-5.3,2.1-6.4,4c-1.8,3.2,0.5,7.6,2.8,9.1c1.3,0.9,3,2.1,4.3,3.6
		c0.5,0.6,0.8,1.3,1.1,2.1c0.2,0.6,0.5,1.3,0.8,1.8c1.1,1.7,1,3-0.2,4.6c-1,1.3-1.7,1.8-2.4,1.8c-0.5,0-1-0.3-1.7-1
		c-0.5-0.5-0.6-1.5-0.8-2.4c-0.1-0.4-0.1-0.9-0.2-1.3c-0.1-0.4-0.1-0.8-0.2-1.3c0-0.2,0-0.4-0.1-0.6c0-0.2-0.2-0.4-0.4-0.4l-0.6-0.1
		l-0.1,0c0,0-0.1,0-0.1,0c-0.2,0-0.4,0.1-0.4,0.3c-0.1,0.2-0.2,0.3-0.3,0.5c-0.3,0.4-0.5,0.8-0.6,1.3c-0.1,0.6-0.1,1.3,0,1.9
		c0,0.4,0,0.8,0,1.2c-0.1,1.6,0.8,2.4,1.8,3.2c1.6,1.3,3.3,1.3,5,1.4c0.6,0,1.2,0.1,1.8,0.1c0.3,0,0.5,0.1,0.8,0.1
		c1.8,0,3.4-0.8,4.5-2.3c1.1-1.5,1.4-3.3,0.8-5.1C312.4,21.5,310.7,19,309,16.6z"/>
	<path fill="#231F20" d="M170,30.3l-0.4-0.2l-0.1-0.1c-0.1,0-0.2-0.1-0.3-0.1c0,0,0,0-0.1,0c-0.5,0.1-1,0.2-1.5,0.2
		c-1.3,0.2-2.6,0.4-3.8,0.5c-0.4,0-1.2-0.6-1.3-1c-0.5-1.8-0.8-3.7-1.1-5.5c-0.1-0.7-0.3-1.5-0.4-2.2c-0.1-0.3-0.1-0.6,0-0.7
		c0.1-0.1,0.3-0.1,0.5-0.1c0,0,0.1,0,0.1,0c0.3,0,0.5,0,0.8,0.1c0.4,0,0.8,0.1,1.2,0.1c0.3,0,0.5,0,0.7-0.1c0.5-0.1,1-0.4,1.4-0.7
		c0.2-0.1,0.3-0.2,0.5-0.3c0.2-0.1,0.2-0.2,0.3-0.4c0-0.2-0.1-0.3-0.2-0.4c-0.2-0.1-0.3-0.2-0.5-0.3c-0.4-0.3-0.9-0.7-1.4-0.8
		c-0.1,0-0.3,0-0.4,0c-0.3,0-0.6,0.1-0.9,0.1c-0.3,0-0.5,0.1-0.7,0.1c-0.1,0-0.1,0-0.2,0c-1.7-0.3-1.9-0.6-2-0.7
		c-0.8-1.8-1.4-3.7-1.8-5.8c-0.1-0.6,0-1.1,0.2-1.3c0.2-0.2,0.5-0.3,0.9-0.3c0.1,0,0.2,0,0.3,0c1.6,0.2,3.2,0.4,4.8,0.4l0.2,0
		c0.5,0,1-0.4,1.4-0.7c0.2-0.1,0.3-0.2,0.5-0.3c0.1-0.1,0.2-0.2,0.2-0.4c0-0.2-0.1-0.3-0.2-0.4c-0.1-0.1-0.2-0.2-0.4-0.3
		c-0.3-0.3-0.7-0.6-1.2-0.6c0,0,0,0,0,0c-2.9,0.1-6.7,0.2-10.6,0.5c-0.8,0.1-1.7,1.2-1.7,2c-0.1,2-0.3,4.3,0,6.5
		c0.2,2,0.5,4,0.8,5.9c0.3,2.1,0.7,4.3,0.9,6.5c0.3,2.4,1.8,3.3,3.3,3.9c1.1,0.4,2.3,0.6,3.7,0.6c1.5,0,3-0.2,4.4-0.5
		c0.9-0.1,1.8-0.3,2.6-0.4c0.6-0.1,0.9-0.6,1.2-1.2c0.1-0.2,0.2-0.4,0.3-0.6c0.1-0.1,0.1-0.3,0.1-0.4
		C170.2,30.5,170.1,30.4,170,30.3z"/>
	<path fill="#231F20" d="M147.1,4.6c-0.1-0.2-0.2-0.3-0.4-0.3c0,0,0,0,0,0c-0.2,0-0.3,0.1-0.4,0.2c-0.1,0.1-0.2,0.3-0.3,0.4
		c-0.2,0.3-0.5,0.7-0.7,1.1c-0.2,0.4-0.2,0.9-0.3,1.3c0,0.2-0.1,0.5-0.1,0.7c-0.3,1.4-0.7,2.8-1,4.2c-0.9,3.8-1.8,7.7-2.9,11.6
		c-0.4,1.3-1,2.7-1.6,3.9c-0.2,0.5-0.5,1-0.7,1.5l-0.2,0c-0.1-0.3-0.3-0.6-0.4-0.9c-0.4-0.8-0.8-1.6-1-2.5c-0.9-4-1.7-8-2.6-12
		c-0.4-2.1-0.9-4.2-1.3-6.4c-0.1-0.7-0.3-1.3-0.8-1.6c-0.5-0.3-1-0.4-1.5-0.4c-1.7,0-3.1,1.4-3.2,3.2c-0.4,5.8,1.4,11.2,3.1,16.4
		c0.2,0.5,0.3,1,0.5,1.5c0.6,2,1.9,3.8,3.1,5.5l0.2,0.2c0.7,0.9,2.1,1.4,3.3,1.4c1.2,0,2.1-0.4,2.3-1.1c1.1-3,2-6.1,2.9-9
		c0.9-2.9,1.7-5.8,2.5-8.6l0.4-1.6l0.3-1c0.6-1.9,1.1-3.9,1.6-5.9c0.1-0.5-0.2-1-0.5-1.4C147.2,4.9,147.1,4.7,147.1,4.6z"/>
	<path fill="#231F20" d="M237,30.8c-0.4-2.1-0.7-4.2-1.1-6.3c-0.2-1.3-0.5-2.5-0.7-3.8c0-0.1,0-0.3,0-0.5c0-0.3,0-0.6-0.1-0.9
		l-0.1-0.2c-1.3-3.4-2.5-6.6-2.4-10.2c0-0.8-1-1.4-1-1.4c-0.6-0.3-1.1-0.5-1.7-0.5c-1.3,0-2.4,1-3.3,2.9c-1.7,3.6-3.3,7.6-5,12.1
		c-1,2.6-1.8,5.2-2.5,7.8l-0.3,1.1c-0.4,1.4-0.4,2.2,0,2.8c1,1.4,2,2,3.1,2c0.5,0,1-0.1,1.5-0.4c0.6-0.3,1-1.2,1.4-2.6
		c0.6-2.6,1.1-5.1,1.6-7.6c0.2-0.8,0.3-1.5,0.4-2.2l6.1-1.1c0.1,0.6,0.2,1.2,0.3,1.8c0.3,1.6,0.5,3.2,1,4.6c0.2,0.7,0.3,1.5,0.3,2.3
		c0.1,1.4,0.1,2.9,1.3,4.1c0.1,0.1,0.2,0.1,0.3,0.1c0,0,0.1,0,0.1,0l0.5-0.1l0.4-0.1c0.3,0,0.4-0.3,0.4-0.5c0-0.3-0.1-0.7-0.1-1
		C237.2,32.3,237.1,31.6,237,30.8z M232.1,18.5c0,0.1-0.1,0.5-0.2,0.6c-1.1,0.3-2.2,0.5-3.3,0.7c-0.2,0-0.5,0.1-0.7,0.1l0-0.1
		l2.9-6.2c0.1,0.2,0.1,0.4,0.2,0.6C231.3,15.8,231.7,17.2,232.1,18.5z"/>
	<path fill="#231F20" d="M291.7,28.9c-0.4-0.1-0.7-0.2-1-0.2c-0.5-0.1-0.9-0.2-1.3-0.2c-0.1,0-0.1,0-0.2,0c-0.6,0-1.3,0.1-1.9,0.2
		c-0.4,0.1-0.8,0.1-1.2,0.2c-0.1,0-0.2,0-0.3,0c-1.5,0-3.6-1.2-3.8-2.6c-0.3-1.7-0.3-3.5-0.3-5.3c0-0.8,0-1.7-0.1-2.5
		c0-0.6,0.1-1.1,0.3-1.3c0.2-0.2,0.4-0.3,0.8-0.3c0.1,0,0.3,0,0.4,0c0.4,0.1,0.8,0.1,1.3,0.2c1.7,0.2,3.5,0.5,5.3,0.6
		c0,0,0.1,0,0.1,0c0.5,0,1-0.4,1.4-0.7c0.2-0.1,0.3-0.3,0.5-0.4c0.1-0.1,0.2-0.3,0.2-0.4c0-0.2-0.1-0.3-0.2-0.4
		c-0.1-0.1-0.3-0.2-0.4-0.3c-0.3-0.3-0.7-0.6-1.2-0.6c-2-0.3-4.1-0.5-6.1-0.6c-2.5-0.2-2.5-0.2-2.3-2.7c0.2-2.7,0.6-3.1,3.2-3.3
		c0.1,0,0.2,0,0.4,0c0.5,0,1,0,1.5,0.1c0.5,0,1.1,0.1,1.6,0.1c0.5,0,1-0.1,1.4-0.3c0.2-0.1,0.4-0.1,0.5-0.1c0.2,0,0.3-0.2,0.4-0.4
		c0-0.2,0-0.4-0.2-0.5c-0.2-0.1-0.3-0.2-0.5-0.4c-0.4-0.4-0.8-0.7-1.4-0.8c-0.4-0.1-0.7-0.1-1.2-0.1c-0.3,0-0.6,0-0.9,0
		c-0.3,0-0.6,0-0.9,0c-0.2,0-0.3,0-0.5,0c-1.2-0.1-2.6-0.2-3.9-0.4c-0.1,0-0.3,0-0.5,0c-1.4,0-3.7,0.9-4.1,2.4
		c-0.5,2.1-0.8,3.8-0.9,5.3c-0.2,2.4-0.2,4.7-0.3,7.1c0,0.8,0,1.6-0.1,2.4c-0.1,3.1-0.2,7,4,8.6c1.6,0.6,3.4,0.9,5.4,0.9
		c1.5,0,3.1-0.2,4.9-0.5c0.5-0.1,0.8-0.5,1.3-1c0.2-0.2,0.5-0.5,0.8-0.8c0.1-0.1,0.2-0.3,0.1-0.5C292.1,29.1,291.9,29,291.7,28.9z"
		/>
	<path fill="#231F20" d="M121.6,28.2C121.6,28.2,121.6,28.2,121.6,28.2l-2.6,0.1c-2.2,0.1-4.2,0.2-6.2,0.4c-0.1,0-0.3,0-0.4,0
		c-0.5,0-0.7-0.1-0.7-0.7c0-2-0.1-4.1-0.1-6c0-1.4-0.1-2.8-0.1-4.2c0-0.9,0-1.8,0-2.8c0-1.5,0-3.1-0.1-4.6c-0.1-1.4-0.3-2.7-0.7-3.9
		c-0.3-0.8-0.7-1.2-1.4-1.2c-0.4,0-0.7,0.1-1.1,0.3c-0.3,0.1-0.6,0.2-0.8,0.2c-0.1,0-0.1,0-0.2,0c-0.1,0-0.2-0.1-0.3-0.1
		c-0.5,0-1.4,1.1-1.6,1.6c-0.3,1.2-0.5,2.3-0.5,3.3c0,5.7,0.1,11.9,0.2,18.9c0,0.5,0.4,1.7,1.1,1.7c2.2,0.2,4.5,0.2,6.4,0.3
		c0,0,0,0,0,0c0.3,0,0.6-0.1,0.9-0.2c0.2-0.1,0.4-0.1,0.6-0.1c1-0.1,2-0.1,3-0.2c1.2-0.1,2.4-0.1,3.6-0.2c0.8,0,1.3-0.3,1.6-0.8
		c0.3-0.5,0.2-1-0.1-1.7C122,28.3,121.8,28.2,121.6,28.2z"/>
	<path fill="#231F20" d="M414.8,18.7C414.8,18.7,414.7,18.7,414.8,18.7c-2.5,0.1-5,0.4-7.4,0.6c-0.5,0.1-1,0.3-1.5,0.7
		c-0.3,0.3-0.4,0.6-0.5,0.9c0,0.1-0.1,0.2-0.1,0.3c-0.1,0.1-0.1,0.3,0,0.4c0,0.1,0.1,0.2,0.3,0.3c0.1,0.1,0.2,0.1,0.4,0.2
		c0.3,0.2,0.7,0.4,1,0.4c0,0,0.1,0,0.1,0c1.1-0.1,2.2-0.3,3.2-0.6c0.3-0.1,0.5-0.1,0.8-0.2c0.1,0.1,0.2,0.1,0.3,0.1c0.3,0,0.6,0,1,0
		c0.3,0,0.7,0,1,0c0.6,0,1.1,0,1.5-0.1c0.8-0.1,1.3-1.2,1.4-1.7c0.1-0.3-0.1-0.6-0.2-0.7C416,19.3,415.3,18.7,414.8,18.7z"/>
</g>
</svg>
